<?xml version="1.0" encoding="utf-8"?>
<!-- Generator: Adobe Illustrator 23.0.3, SVG Export Plug-In . SVG Version: 6.00 Build 0)  -->
<svg version="1.1" id="Layer_1" xmlns="http://www.w3.org/2000/svg" xmlns:xlink="http://www.w3.org/1999/xlink" x="0px" y="0px"
	 viewBox="0 0 11 11" style="enable-background:new 0 0 11 11;" xml:space="preserve">
<style type="text/css">
	.st0{fill:none;}
</style>
<g>
	<g>
		<g>
			<rect class="st0" width="11" height="11"/>
		</g>
	</g>
</g>
<g id="Group_754" transform="translate(-2110 -12307)">
	<g id="Rectangle_617" transform="translate(49 153)">
		<g>
			<g>
				<g>
					<path class="st0" d="M2061.5,12154h10c0.3,0,0.5,0.2,0.5,0.5v10c0,0.3-0.2,0.5-0.5,0.5h-10c-0.3,0-0.5-0.2-0.5-0.5v-10
						C2061,12154.2,2061.2,12154,2061.5,12154z"/>
				</g>
			</g>
		</g>
		<g>
			<g>
				<g>
					<path d="M2071.5,12165h-10c-0.3,0-0.5-0.2-0.5-0.5v-10c0-0.3,0.2-0.5,0.5-0.5h10c0.3,0,0.5,0.2,0.5,0.5v10
						C2072,12164.8,2071.8,12165,2071.5,12165z M2061.5,12154.5v10h10v-10H2061.5z"/>
				</g>
			</g>
		</g>
	</g>
	<g id="Ellipse_294">
		<g>
			<g>
				<circle cx="2115.5" cy="12312.5" r="3.5"/>
			</g>
		</g>
	</g>
</g>
</svg>
