<svg xmlns="http://www.w3.org/2000/svg" width="122.966" height="123.061" viewBox="0 0 122.966 123.061">
  <g id="search_simple" data-name="search simple" transform="translate(-0.196)">
    <path id="Path_149" data-name="Path 149" d="M50.872,101.351a50.676,50.676,0,1,1,50.676-50.676,50.733,50.733,0,0,1-50.676,50.676Zm0-91.744A41.069,41.069,0,1,0,91.94,50.676,41.115,41.115,0,0,0,50.872,9.607Zm70.884,112.047a4.8,4.8,0,0,0,0-6.793l-21.5-21.5a4.8,4.8,0,0,0-6.793,6.793l21.5,21.5a4.8,4.8,0,0,0,6.793,0Z"/>
  </g>
</svg>
